<svg width="85" height="106" viewBox="0 0 85 106" fill="none" xmlns="http://www.w3.org/2000/svg">
<path fill-rule="evenodd" clip-rule="evenodd" d="M41.9951 82.9756C59.002 82.9756 68.3712 60.9702 72.7685 41.2264C81.5726 11.2771 85.4501 0.711365 84.9586 0.504096C84.4612 0.294311 79.4883 10.6961 70.6181 22.3515C71.4535 23.6972 71.9359 25.285 71.9359 26.9854C71.9359 31.8445 67.9968 35.7836 63.1377 35.7836C61.449 35.7836 59.8714 35.3078 58.5317 34.4831C58.24 35.6022 57.8683 37.0892 57.3944 38.9845C50.5834 78.4291 33.6935 52.2731 21.7924 33.8427C14.4468 22.4671 9.00164 14.0347 9 25.7872C9.0043 47.7828 24.9882 82.9756 41.9951 82.9756Z" fill="url(#paint0_linear_267_157)"/>
<circle cx="63" cy="27" r="7" fill="#35495E"/>
<defs>
<linearGradient id="paint0_linear_267_157" x1="63.9966" y1="34.5859" x2="17.8048" y2="69.7815" gradientUnits="userSpaceOnUse">
<stop stop-color="#41B883"/>
<stop offset="1" stop-color="#1F3F37" stop-opacity="0.84"/>
</linearGradient>
</defs>
</svg>
